<svg viewBox="0 0 19 19" >
<path d="M9.5 0C10.7476 0 11.9829 0.245725 13.1355 0.723144C14.2881 1.20056 15.3354 1.90033 16.2175 2.78249C17.0997 3.66464 17.7994 4.71191 18.2769 5.86451C18.7543 7.0171 19 8.25244 19 9.5C19 12.0196 17.9991 14.4359 16.2175 16.2175C14.4359 17.9991 12.0196 19 9.5 19C8.25244 19 7.0171 18.7543 5.86451 18.2769C4.71191 17.7994 3.66464 17.0997 2.78249 16.2175C1.00089 14.4359 0 12.0196 0 9.5C0 6.98044 1.00089 4.56408 2.78249 2.78249C4.56408 1.00089 6.98044 0 9.5 0ZM14.25 13.3V12.35L13.3 11.4V8.9205C13.3 7.885 13.0435 6.973 12.5495 6.2035C12.065 5.434 11.362 4.9495 10.45 4.75V4.275C10.45 4.02304 10.3499 3.78141 10.1718 3.60325C9.99359 3.42509 9.75196 3.325 9.5 3.325C9.24804 3.325 9.00641 3.42509 8.82825 3.60325C8.65009 3.78141 8.55 4.02304 8.55 4.275V4.75C7.638 4.9495 6.935 5.434 6.4505 6.2035C5.9565 6.973 5.7 7.885 5.7 8.9205V11.4L4.75 12.35V13.3H14.25ZM10.925 14.25H8.075C8.075 14.6279 8.22513 14.9904 8.49237 15.2576C8.75961 15.5249 9.12207 15.675 9.5 15.675C9.87793 15.675 10.2404 15.5249 10.5076 15.2576C10.7749 14.9904 10.925 14.6279 10.925 14.25Z"/>
</svg>
