<svg viewBox="0 0 15 20" >
<path d="M4.1661 16.7916V20.0001H10.8314V16.9299C10.8148 16.2197 10.9498 15.514 11.2273 14.8601C11.5049 14.2061 11.9187 13.6188 12.441 13.1373C13.5807 12.1384 14.391 10.8176 14.765 9.34894C15.139 7.88031 15.0592 6.33282 14.5361 4.91045C14.0131 3.48807 13.0713 2.25757 11.8349 1.38113C10.5986 0.504685 9.12564 0.0234443 7.61031 0.000834871C6.09498 -0.0217745 4.60836 0.415308 3.3464 1.25447C2.08443 2.09364 1.10637 3.2955 0.541109 4.70164C-0.0241502 6.10778 -0.150067 7.65219 0.179953 9.13132C0.509974 10.6105 1.28044 11.9549 2.38981 12.9874C2.93319 13.4639 3.37167 14.0481 3.67744 14.7029C3.98321 15.3578 4.14962 16.069 4.1661 16.7916ZM9.16506 18.3338H5.83242V16.7916C5.83242 16.7499 5.82659 16.7083 5.82576 16.6674H9.17839C9.17839 16.7508 9.16506 16.8416 9.16506 16.9299V18.3338ZM1.71661 6.73201C1.84047 5.79735 2.18908 4.90666 2.73257 4.13624C3.27607 3.36583 3.99824 2.73866 4.83721 2.30849C5.67618 1.87831 6.60694 1.65795 7.54973 1.66628C8.49252 1.67461 9.41924 1.91139 10.2505 2.35633C11.0817 2.80127 11.7927 3.4411 12.3225 4.221C12.8523 5.0009 13.1851 5.89761 13.2924 6.83431C13.3997 7.77101 13.2783 8.71977 12.9387 9.59929C12.599 10.4788 12.0512 11.2629 11.3421 11.8843C10.4148 12.7145 9.7507 13.798 9.43167 15.0011H8.3319V9.0157C8.81756 8.844 9.2383 8.52644 9.53658 8.10647C9.83485 7.6865 9.99609 7.18463 9.99822 6.66952H8.3319C8.3319 6.89049 8.24412 7.10241 8.08787 7.25866C7.93163 7.4149 7.71971 7.50268 7.49874 7.50268C7.27777 7.50268 7.06586 7.4149 6.90961 7.25866C6.75336 7.10241 6.66558 6.89049 6.66558 6.66952H4.99926C5.0014 7.18463 5.16263 7.6865 5.46091 8.10647C5.75918 8.52644 6.17993 8.844 6.66558 9.0157V15.0011H5.56414C5.18838 13.7591 4.48363 12.6418 3.52457 11.7676C2.84099 11.1351 2.31981 10.3473 2.00511 9.4708C1.69041 8.59428 1.59146 7.65486 1.71661 6.73201Z" />
</svg>
