<svg viewBox="0 0 17 17" fill="currentColor" >
<path d="M8.33333 16.6667C6.82222 16.6667 5.42222 16.2889 4.13333 15.5333C2.87778 14.7889 1.87778 13.7889 1.13333 12.5333C0.377778 11.2444 0 9.84443 0 8.33332C0 6.82221 0.377778 5.42221 1.13333 4.13332C1.87778 2.87777 2.87778 1.87777 4.13333 1.13332C5.42222 0.377767 6.82222 -1.10418e-05 8.33333 -1.10418e-05C9.84444 -1.10418e-05 11.2444 0.377767 12.5333 1.13332C13.7889 1.87777 14.7889 2.87777 15.5333 4.13332C16.2889 5.42221 16.6667 6.82221 16.6667 8.33332C16.6667 9.84443 16.2889 11.2444 15.5333 12.5333C14.7889 13.7889 13.7889 14.7889 12.5333 15.5333C11.2444 16.2889 9.84444 16.6667 8.33333 16.6667ZM7.5 11.6667L13.4 5.76666L12.2167 4.59999L7.5 9.31666L5.15 6.94999L3.96667 8.13332L7.5 11.6667Z"  />
</svg>

