<svg  viewBox="0 0 17 16" fill="currentColor" >
<path fill-rule="evenodd" clip-rule="evenodd" d="M2.73047 0C2.13373 0 1.56144 0.237053 1.13948 0.65901C0.717522 1.08097 0.480469 1.65326 0.480469 2.25V4.75C0.480469 5.34674 0.717522 5.91903 1.13948 6.34099C1.56144 6.76295 2.13373 7 2.73047 7H5.23047C5.82721 7 6.3995 6.76295 6.82146 6.34099C7.24342 5.91903 7.48047 5.34674 7.48047 4.75V2.25C7.48047 1.65326 7.24342 1.08097 6.82146 0.65901C6.3995 0.237053 5.82721 0 5.23047 0H2.73047ZM2.73047 9C2.13373 9 1.56144 9.23705 1.13948 9.65901C0.717522 10.081 0.480469 10.6533 0.480469 11.25V13.75C0.480469 14.3467 0.717522 14.919 1.13948 15.341C1.56144 15.7629 2.13373 16 2.73047 16H5.23047C5.82721 16 6.3995 15.7629 6.82146 15.341C7.24342 14.919 7.48047 14.3467 7.48047 13.75V11.25C7.48047 10.6533 7.24342 10.081 6.82146 9.65901C6.3995 9.23705 5.82721 9 5.23047 9H2.73047ZM11.7305 0C11.1337 0 10.5614 0.237053 10.1395 0.65901C9.71752 1.08097 9.48047 1.65326 9.48047 2.25V4.75C9.48047 5.34674 9.71752 5.91903 10.1395 6.34099C10.5614 6.76295 11.1337 7 11.7305 7H14.2305C14.8272 7 15.3995 6.76295 15.8215 6.34099C16.2434 5.91903 16.4805 5.34674 16.4805 4.75V2.25C16.4805 1.65326 16.2434 1.08097 15.8215 0.65901C15.3995 0.237053 14.8272 0 14.2305 0H11.7305ZM11.7305 9C11.1337 9 10.5614 9.23705 10.1395 9.65901C9.71752 10.081 9.48047 10.6533 9.48047 11.25V13.75C9.48047 14.3467 9.71752 14.919 10.1395 15.341C10.5614 15.7629 11.1337 16 11.7305 16H14.2305C14.8272 16 15.3995 15.7629 15.8215 15.341C16.2434 14.919 16.4805 14.3467 16.4805 13.75V11.25C16.4805 10.6533 16.2434 10.081 15.8215 9.65901C15.3995 9.23705 14.8272 9 14.2305 9H11.7305Z" />
</svg>
