<svg viewBox="0 0 17 17" >
<path d="M3.13518 11.6642H14.9969V1.66632H1.66632V12.8182L3.13518 11.6642ZM3.71173 13.3306L0 16.2466V0.83316C0 0.612192 0.087779 0.400275 0.244027 0.244027C0.400275 0.087779 0.612192 0 0.83316 0H15.83C16.051 0 16.2629 0.087779 16.4192 0.244027C16.5754 0.400275 16.6632 0.612192 16.6632 0.83316V12.4974C16.6632 12.7184 16.5754 12.9303 16.4192 13.0865C16.2629 13.2428 16.051 13.3306 15.83 13.3306H3.71173ZM7.49844 9.16476H9.16476V10.8311H7.49844V9.16476ZM5.47136 4.84316C5.57961 4.30143 5.83947 3.80158 6.2207 3.40177C6.60193 3.00196 7.08887 2.71864 7.62484 2.58476C8.16081 2.45088 8.72377 2.47196 9.24823 2.64554C9.77269 2.81913 10.2371 3.13807 10.5873 3.56527C10.9376 3.99247 11.1594 4.51035 11.2268 5.05866C11.2942 5.60697 11.2046 6.16315 10.9682 6.66249C10.7319 7.16183 10.3587 7.58379 9.89189 7.87927C9.42512 8.17476 8.88403 8.33162 8.3316 8.3316H7.49844V6.66528H8.3316C8.56828 6.66526 8.80009 6.59804 9.00006 6.47143C9.20003 6.34481 9.35994 6.16402 9.46117 5.95008C9.56241 5.73614 9.60081 5.49785 9.57191 5.26294C9.54301 5.02803 9.44799 4.80615 9.29792 4.62313C9.14785 4.44011 8.9489 4.30346 8.7242 4.22909C8.4995 4.15473 8.25831 4.14569 8.02868 4.20305C7.79905 4.2604 7.59043 4.38178 7.42709 4.55306C7.26375 4.72435 7.15241 4.9385 7.10602 5.17059L5.47136 4.84316Z"/>
</svg>
