<svg viewBox="0 0 28 28" fill="currentColor" xmlns="http://www.w3.org/2000/svg">
<path d="M14.0003 0.666748C12.2494 0.666748 10.5156 1.01162 8.89788 1.68169C7.2802 2.35175 5.81035 3.33388 4.57223 4.57199C2.07175 7.07248 0.666992 10.4639 0.666992 14.0001C0.666992 17.5363 2.07175 20.9277 4.57223 23.4282C5.81035 24.6663 7.2802 25.6484 8.89788 26.3185C10.5156 26.9885 12.2494 27.3334 14.0003 27.3334C17.5365 27.3334 20.9279 25.9287 23.4284 23.4282C25.9289 20.9277 27.3337 17.5363 27.3337 14.0001C27.3337 12.2491 26.9888 10.5153 26.3187 8.89763C25.6487 7.27996 24.6665 5.81011 23.4284 4.57199C22.1903 3.33388 20.7204 2.35175 19.1028 1.68169C17.4851 1.01162 15.7513 0.666748 14.0003 0.666748ZM7.42699 22.3734C8.00033 21.1734 11.4937 20.0001 14.0003 20.0001C16.507 20.0001 20.0003 21.1734 20.5737 22.3734C18.7603 23.8134 16.4803 24.6667 14.0003 24.6667C11.5203 24.6667 9.24032 23.8134 7.42699 22.3734ZM22.4803 20.4401C20.5737 18.1201 15.947 17.3334 14.0003 17.3334C12.0537 17.3334 7.42699 18.1201 5.52033 20.4401C4.16033 18.6667 3.33366 16.4267 3.33366 14.0001C3.33366 8.12008 8.12033 3.33341 14.0003 3.33341C19.8803 3.33341 24.667 8.12008 24.667 14.0001C24.667 16.4267 23.8403 18.6667 22.4803 20.4401ZM14.0003 6.00008C11.4137 6.00008 9.33366 8.08008 9.33366 10.6667C9.33366 13.2534 11.4137 15.3334 14.0003 15.3334C16.587 15.3334 18.667 13.2534 18.667 10.6667C18.667 8.08008 16.587 6.00008 14.0003 6.00008ZM14.0003 12.6667C13.4699 12.6667 12.9612 12.456 12.5861 12.081C12.211 11.7059 12.0003 11.1972 12.0003 10.6667C12.0003 10.1363 12.211 9.62761 12.5861 9.25253C12.9612 8.87746 13.4699 8.66675 14.0003 8.66675C14.5308 8.66675 15.0395 8.87746 15.4145 9.25253C15.7896 9.62761 16.0003 10.1363 16.0003 10.6667C16.0003 11.1972 15.7896 11.7059 15.4145 12.081C15.0395 12.456 14.5308 12.6667 14.0003 12.6667Z" />
</svg>
