<svg viewBox="0 0 16 16" >
<path fill-rule="evenodd" clip-rule="evenodd" d="M16 8C16 10.1217 15.1571 12.1566 13.6569 13.6569C12.1566 15.1571 10.1217 16 8 16C5.87827 16 3.84344 15.1571 2.34315 13.6569C0.842855 12.1566 0 10.1217 0 8C0 5.87827 0.842855 3.84344 2.34315 2.34315C3.84344 0.842855 5.87827 0 8 0C10.1217 0 12.1566 0.842855 13.6569 2.34315C15.1571 3.84344 16 5.87827 16 8ZM10.5 5.5C10.5 6.16304 10.2366 6.79893 9.76777 7.26777C9.29893 7.73661 8.66304 8 8 8C7.33696 8 6.70107 7.73661 6.23223 7.26777C5.76339 6.79893 5.5 6.16304 5.5 5.5C5.5 4.83696 5.76339 4.20107 6.23223 3.73223C6.70107 3.26339 7.33696 3 8 3C8.66304 3 9.29893 3.26339 9.76777 3.73223C10.2366 4.20107 10.5 4.83696 10.5 5.5ZM8 10C7.07042 9.99915 6.1534 10.2147 5.3215 10.6295C4.48961 11.0443 3.76568 11.647 3.207 12.39C3.81524 13.0557 4.55567 13.5872 5.38097 13.9505C6.20626 14.3138 7.09827 14.501 8 14.5C8.90173 14.501 9.79374 14.3138 10.619 13.9505C11.4443 13.5872 12.1848 13.0557 12.793 12.39C12.2343 11.647 11.5104 11.0443 10.6785 10.6295C9.8466 10.2147 8.92958 9.99915 8 10Z" />
</svg>
