<svg viewBox="0 0 3 14" >
<path d="M1.5 0C1.89782 0 2.27936 0.158035 2.56066 0.43934C2.84196 0.720644 3 1.10218 3 1.5C3 1.89782 2.84196 2.27936 2.56066 2.56066C2.27936 2.84196 1.89782 3 1.5 3C1.10218 3 0.720644 2.84196 0.43934 2.56066C0.158035 2.27936 0 1.89782 0 1.5C0 1.10218 0.158035 0.720644 0.43934 0.43934C0.720644 0.158035 1.10218 0 1.5 0ZM1.5 5.5C1.89782 5.5 2.27936 5.65804 2.56066 5.93934C2.84196 6.22064 3 6.60218 3 7C3 7.39782 2.84196 7.77936 2.56066 8.06066C2.27936 8.34196 1.89782 8.5 1.5 8.5C1.10218 8.5 0.720644 8.34196 0.43934 8.06066C0.158035 7.77936 0 7.39782 0 7C0 6.60218 0.158035 6.22064 0.43934 5.93934C0.720644 5.65804 1.10218 5.5 1.5 5.5ZM3 12.5C3 12.1022 2.84196 11.7206 2.56066 11.4393C2.27936 11.158 1.89782 11 1.5 11C1.10218 11 0.720644 11.158 0.43934 11.4393C0.158035 11.7206 0 12.1022 0 12.5C0 12.8978 0.158035 13.2794 0.43934 13.5607C0.720644 13.842 1.10218 14 1.5 14C1.89782 14 2.27936 13.842 2.56066 13.5607C2.84196 13.2794 3 12.8978 3 12.5Z"/>
</svg>
